<?xml version="1.0" encoding="utf-8"?>
<!-- Generator: Adobe Illustrator 22.1.0, SVG Export Plug-In . SVG Version: 6.00 Build 0)  -->
<svg version="1.1" id="Layer_1" xmlns="http://www.w3.org/2000/svg" xmlns:xlink="http://www.w3.org/1999/xlink" x="0px" y="0px"
	 viewBox="0 0 768 1024" style="enable-background:new 0 0 768 1024;" xml:space="preserve">
<style type="text/css">
	.st0{fill:url(#SVGID_1_);}
	.st1{fill:url(#SVGID_2_);}
	.st2{fill:url(#SVGID_3_);}
	.st3{fill:url(#SVGID_4_);}
	.st4{fill:url(#SVGID_5_);}
	.st5{fill:url(#SVGID_6_);}
	.st6{fill:url(#SVGID_7_);}
	.st7{fill:url(#SVGID_8_);}
</style>
<radialGradient id="SVGID_1_" cx="815.3531" cy="725.0006" r="12.2333" gradientTransform="matrix(0.4656 0 0 1.4335 -136.8452 -987.593)" gradientUnits="userSpaceOnUse">
	<stop  offset="0" style="stop-color:#FFFFFF"/>
	<stop  offset="8.862800e-02" style="stop-color:#73E6FF"/>
	<stop  offset="0.4256" style="stop-color:#73E6EC;stop-opacity:0.452"/>
	<stop  offset="0.7036" style="stop-color:#73E6E1;stop-opacity:0"/>
</radialGradient>
<path class="st0" d="M248.7,51.7c0,10-2.6,18.2-5.9,18.2c-3.3,0-5.9-8.1-5.9-18.2c0-10,2.6-18.2,5.9-18.2
	C246,33.5,248.7,41.7,248.7,51.7z"/>
<radialGradient id="SVGID_2_" cx="6110.7734" cy="319.3008" r="12.233" gradientTransform="matrix(-0.4656 0 0 -1.123 3367.428 410.2701)" gradientUnits="userSpaceOnUse">
	<stop  offset="0" style="stop-color:#FFFFFF"/>
	<stop  offset="8.862800e-02" style="stop-color:#73E6FF"/>
	<stop  offset="0.4256" style="stop-color:#73E6EC;stop-opacity:0.452"/>
	<stop  offset="0.7036" style="stop-color:#73E6E1;stop-opacity:0"/>
</radialGradient>
<path class="st1" d="M516.4,51.7c0-7.9,2.6-14.2,5.9-14.2c3.3,0,5.9,6.4,5.9,14.2c0,7.9-2.6,14.2-5.9,14.2
	C519,65.9,516.4,59.5,516.4,51.7z"/>
<radialGradient id="SVGID_3_" cx="6328.5493" cy="315.6737" r="12.2334" gradientTransform="matrix(-0.4656 0 0 -1.2368 3367.428 444.1206)" gradientUnits="userSpaceOnUse">
	<stop  offset="0" style="stop-color:#FFFFFF"/>
	<stop  offset="8.862800e-02" style="stop-color:#73E6FF"/>
	<stop  offset="0.4256" style="stop-color:#73E6EC;stop-opacity:0.452"/>
	<stop  offset="0.7036" style="stop-color:#73E6E1;stop-opacity:0"/>
</radialGradient>
<path class="st2" d="M415,53.7c0-8.7,2.6-15.7,5.9-15.7c3.3,0,5.9,7,5.9,15.7c0,8.7-2.6,15.7-5.9,15.7C417.6,69.4,415,62.3,415,53.7
	z"/>
<radialGradient id="SVGID_4_" cx="6354.7441" cy="-229.8626" r="12.2333" gradientTransform="matrix(-0.4372 -0.16 0.3247 -0.8873 3160.0981 857.0767)" gradientUnits="userSpaceOnUse">
	<stop  offset="0" style="stop-color:#FFFFFF"/>
	<stop  offset="8.862800e-02" style="stop-color:#73E6FF"/>
	<stop  offset="0.4256" style="stop-color:#73E6EC;stop-opacity:0.452"/>
	<stop  offset="0.7036" style="stop-color:#73E6E1;stop-opacity:0"/>
</radialGradient>
<path class="st3" d="M301.6,42.2c2.3-6.2,6.6-10.3,9.6-9.2c3.1,1.1,3.7,7.1,1.4,13.3c-2.3,6.2-6.6,10.3-9.6,9.2
	C300,54.4,299.4,48.5,301.6,42.2z"/>
<radialGradient id="SVGID_5_" cx="3625.6807" cy="-1205.8954" r="12.2333" gradientTransform="matrix(-5.100000e-03 -0.4656 0.9448 -1.040000e-02 1432.443 1738.4863)" gradientUnits="userSpaceOnUse">
	<stop  offset="0" style="stop-color:#FFFFFF"/>
	<stop  offset="8.862800e-02" style="stop-color:#73E6FF"/>
	<stop  offset="0.4256" style="stop-color:#73E6EC;stop-opacity:0.452"/>
	<stop  offset="0.7036" style="stop-color:#73E6E1;stop-opacity:0"/>
</radialGradient>
<path class="st4" d="M274.6,57c6.6-0.1,12,2.5,12,5.8c0,3.3-5.3,6-11.9,6c-6.6,0.1-12-2.5-12-5.8C262.6,59.8,268,57.1,274.6,57z"/>
<radialGradient id="SVGID_6_" cx="2704.1775" cy="1362.7626" r="12.233" gradientTransform="matrix(5.100000e-03 0.4656 -0.9448 1.040000e-02 1733.4327 -1233.7998)" gradientUnits="userSpaceOnUse">
	<stop  offset="0" style="stop-color:#FFFFFF"/>
	<stop  offset="8.862800e-02" style="stop-color:#73E6FF"/>
	<stop  offset="0.4256" style="stop-color:#73E6EC;stop-opacity:0.452"/>
	<stop  offset="0.7036" style="stop-color:#73E6E1;stop-opacity:0"/>
</radialGradient>
<path class="st5" d="M459.8,45.3c-6.6,0.1-12-2.5-12-5.8c0-3.3,5.3-6,11.9-6c6.6-0.1,12,2.5,12,5.8
	C471.7,42.6,466.4,45.3,459.8,45.3z"/>
<radialGradient id="SVGID_7_" cx="334.1385" cy="407.4661" r="12.2329" gradientTransform="matrix(0.4656 -5.100000e-03 1.660000e-02 1.503 175.8994 -557.0219)" gradientUnits="userSpaceOnUse">
	<stop  offset="0" style="stop-color:#FFFFFF"/>
	<stop  offset="8.862800e-02" style="stop-color:#73E6FF"/>
	<stop  offset="0.4256" style="stop-color:#73E6EC;stop-opacity:0.452"/>
	<stop  offset="0.7036" style="stop-color:#73E6E1;stop-opacity:0"/>
</radialGradient>
<path class="st6" d="M344.1,53.6c0.1,10.5-2.4,19.1-5.7,19.1c-3.3,0-6-8.5-6.1-19c-0.1-10.5,2.4-19.1,5.7-19.1
	C341.3,34.6,344,43.1,344.1,53.6z"/>
<radialGradient id="SVGID_8_" cx="4830.917" cy="1284.3882" r="8.4999" gradientTransform="matrix(-0.2626 0.3844 -1.2411 -0.8479 3354.467 -706.6891)" gradientUnits="userSpaceOnUse">
	<stop  offset="0" style="stop-color:#FFFFFF"/>
	<stop  offset="8.862800e-02" style="stop-color:#73E6FF"/>
	<stop  offset="0.4256" style="stop-color:#73E6EC;stop-opacity:0.452"/>
	<stop  offset="0.7036" style="stop-color:#73E6E1;stop-opacity:0"/>
</radialGradient>
<path class="st7" d="M489.5,64.7c-6-4.1-9.9-9-8.6-10.8c1.3-1.9,7.2,0,13.2,4.1c6,4.1,9.9,9,8.6,10.8
	C501.5,70.6,495.5,68.8,489.5,64.7z"/>
</svg>
