<svg id="Layer_1" data-name="Layer 1" xmlns="http://www.w3.org/2000/svg" xmlns:xlink="http://www.w3.org/1999/xlink" viewBox="0 0 768 1024"><defs><style>.cls-1{fill:url(#radial-gradient);}.cls-2{fill:#fff;}.cls-3{fill:url(#radial-gradient-2);}</style><radialGradient id="radial-gradient" cx="1132.46" cy="2824.87" r="37.95" gradientTransform="translate(1019.62 -496.92) rotate(45) scale(0.47)" gradientUnits="userSpaceOnUse"><stop offset="0" stop-color="#fff"/><stop offset="0.09" stop-color="#83cee6"/><stop offset="0.26" stop-color="#82cddd" stop-opacity="0.66"/><stop offset="0.41" stop-color="#81ccd6" stop-opacity="0.38"/><stop offset="0.55" stop-color="#81ccd1" stop-opacity="0.17"/><stop offset="0.65" stop-color="#80cbcd" stop-opacity="0.05"/><stop offset="0.7" stop-color="#80cbcc" stop-opacity="0"/></radialGradient><radialGradient id="radial-gradient-2" cx="927.14" cy="3030.18" r="37.95" xlink:href="#radial-gradient"/></defs><title>19</title><path class="cls-1" d="M465.82,841.94a18.61,18.61,0,1,1,0-26.32A18.61,18.61,0,0,1,465.82,841.94Z"/><path class="cls-2" d="M454.27,830.39a2.28,2.28,0,1,0-3.22,0A2.28,2.28,0,0,0,454.27,830.39Z"/><path class="cls-3" d="M328.26,841.94a18.61,18.61,0,1,1,0-26.32A18.61,18.61,0,0,1,328.26,841.94Z"/><path class="cls-2" d="M316.71,830.39a2.28,2.28,0,1,0-3.22,0A2.28,2.28,0,0,0,316.71,830.39Z"/></svg>