<svg id="Layer_1" data-name="Layer 1" xmlns="http://www.w3.org/2000/svg" viewBox="0 0 768 1024"><defs><style>.cls-1{fill:#8acfda;opacity:0.5;}</style></defs><title>9</title><rect class="cls-1" x="225.44" y="584.21" width="8.7" height="8.7"/><rect class="cls-1" x="211.27" y="584.21" width="8.71" height="8.7"/><rect class="cls-1" x="197.09" y="584.21" width="8.7" height="8.7"/><rect class="cls-1" x="182.92" y="584.21" width="8.7" height="8.7"/><rect class="cls-1" x="168.75" y="584.21" width="8.71" height="8.7"/><rect class="cls-1" x="154.58" y="584.21" width="8.71" height="8.7"/><rect class="cls-1" x="225.44" y="598.92" width="8.7" height="8.7"/><rect class="cls-1" x="211.27" y="598.92" width="8.71" height="8.7"/><rect class="cls-1" x="197.09" y="598.92" width="8.7" height="8.7"/><rect class="cls-1" x="182.92" y="598.92" width="8.7" height="8.7"/><rect class="cls-1" x="168.75" y="598.92" width="8.71" height="8.7"/><rect class="cls-1" x="225.44" y="613.62" width="8.7" height="8.71"/><rect class="cls-1" x="211.27" y="613.62" width="8.71" height="8.71"/><rect class="cls-1" x="197.09" y="613.62" width="8.7" height="8.71"/><rect class="cls-1" x="182.92" y="613.62" width="8.7" height="8.71"/><rect class="cls-1" x="168.75" y="613.62" width="8.71" height="8.71"/><rect class="cls-1" x="225.44" y="628.33" width="8.7" height="8.71"/><rect class="cls-1" x="211.27" y="628.33" width="8.71" height="8.71"/><rect class="cls-1" x="197.09" y="628.33" width="8.7" height="8.71"/><rect class="cls-1" x="182.92" y="628.33" width="8.7" height="8.71"/><rect class="cls-1" x="168.75" y="628.33" width="8.71" height="8.71"/><rect class="cls-1" x="225.44" y="657.73" width="8.7" height="8.71"/><rect class="cls-1" x="211.27" y="657.73" width="8.71" height="8.71"/><rect class="cls-1" x="197.09" y="657.73" width="8.7" height="8.71"/><rect class="cls-1" x="182.92" y="657.73" width="8.7" height="8.71"/><rect class="cls-1" x="168.75" y="657.73" width="8.71" height="8.71"/><rect class="cls-1" x="225.44" y="643.03" width="8.7" height="8.7"/><rect class="cls-1" x="211.27" y="643.03" width="8.71" height="8.7"/><rect class="cls-1" x="197.09" y="643.03" width="8.7" height="8.7"/><rect class="cls-1" x="182.92" y="643.03" width="8.7" height="8.7"/><rect class="cls-1" x="168.75" y="643.03" width="8.71" height="8.7"/></svg>