<svg id="Layer_1" data-name="Layer 1" xmlns="http://www.w3.org/2000/svg" viewBox="0 0 768 1024"><defs><style>.cls-1{fill:#72c8d5;}</style></defs><title>2</title><polygon class="cls-1" points="86.47 126.03 86.47 113.09 99.4 113.09 101.47 115.16 88.53 115.16 88.53 117.71 88.53 117.71 88.53 128.3 86.47 126.03"/><polygon class="cls-1" points="90.95 125.08 90.95 117.6 98.43 117.6 97.87 117.03 90.39 117.03 90.39 124.52 90.95 125.08"/><polygon class="cls-1" points="99.23 199.86 86.47 199.86 86.47 187.1 88.5 185.06 88.5 197.82 91.02 197.82 91.02 197.82 101.47 197.82 99.23 199.86"/><polygon class="cls-1" points="98.29 195.44 90.91 195.44 90.91 188.06 90.35 188.61 90.35 196 97.74 196 98.29 195.44"/><polygon class="cls-1" points="681.35 126.03 681.35 113.09 668.42 113.09 666.35 115.16 679.29 115.16 679.29 117.71 679.29 117.71 679.29 128.3 681.35 126.03"/><polygon class="cls-1" points="676.87 125.08 676.87 117.6 669.39 117.6 669.95 117.03 677.43 117.03 677.43 124.52 676.87 125.08"/><polygon class="cls-1" points="668.59 199.86 681.35 199.86 681.35 187.1 679.32 185.06 679.32 197.82 676.8 197.82 676.8 197.82 666.35 197.82 668.59 199.86"/><polygon class="cls-1" points="669.52 195.44 676.91 195.44 676.91 188.06 677.47 188.61 677.47 196 670.08 196 669.52 195.44"/></svg>