<svg id="Layer_1" data-name="Layer 1" xmlns="http://www.w3.org/2000/svg" viewBox="0 0 768 1024"><defs><style>.cls-1{fill:aqua;}</style></defs><title>2</title><polygon class="cls-1" points="86.47 126.03 86.47 113.09 99.4 113.09 101.47 115.16 88.53 115.16 88.53 117.71 88.53 117.71 88.53 128.3 86.47 126.03"/><polygon class="cls-1" points="90.95 125.08 90.95 117.6 98.43 117.6 97.87 117.03 90.39 117.03 90.39 124.52 90.95 125.08"/><polygon class="cls-1" points="99.23 214.88 86.47 214.88 86.47 202.12 88.5 200.08 88.5 212.84 91.02 212.84 91.02 212.84 101.47 212.84 99.23 214.88"/><polygon class="cls-1" points="98.29 210.46 90.91 210.46 90.91 203.07 90.35 203.63 90.35 211.01 97.74 211.01 98.29 210.46"/><polygon class="cls-1" points="681.35 126.03 681.35 113.09 668.42 113.09 666.35 115.16 679.29 115.16 679.29 117.71 679.29 117.71 679.29 128.3 681.35 126.03"/><polygon class="cls-1" points="676.87 125.08 676.87 117.6 669.39 117.6 669.95 117.03 677.43 117.03 677.43 124.52 676.87 125.08"/><polygon class="cls-1" points="668.59 214.88 681.35 214.88 681.35 202.12 679.32 200.08 679.32 212.84 676.8 212.84 676.8 212.84 666.35 212.84 668.59 214.88"/><polygon class="cls-1" points="669.52 210.46 676.91 210.46 676.91 203.07 677.47 203.63 677.47 211.01 670.08 211.01 669.52 210.46"/></svg>