<svg id="Layer_1" data-name="Layer 1" xmlns="http://www.w3.org/2000/svg" viewBox="0 0 768 1024"><defs><style>.cls-1{fill:aqua;}</style></defs><title>2</title><polygon class="cls-1" points="86.47 126.03 86.47 113.09 99.4 113.09 101.47 115.16 88.53 115.16 88.53 117.71 88.53 117.71 88.53 128.3 86.47 126.03"/><polygon class="cls-1" points="90.95 125.08 90.95 117.6 98.43 117.6 97.87 117.03 90.39 117.03 90.39 124.52 90.95 125.08"/><polygon class="cls-1" points="99.23 249.91 86.47 249.91 86.47 237.15 88.5 235.11 88.5 247.87 91.02 247.87 91.02 247.87 101.47 247.87 99.23 249.91"/><polygon class="cls-1" points="98.29 245.49 90.91 245.49 90.91 238.1 90.35 238.66 90.35 246.04 97.74 246.04 98.29 245.49"/><polygon class="cls-1" points="681.35 126.03 681.35 113.09 668.42 113.09 666.35 115.16 679.29 115.16 679.29 117.71 679.29 117.71 679.29 128.3 681.35 126.03"/><polygon class="cls-1" points="676.87 125.08 676.87 117.6 669.39 117.6 669.95 117.03 677.43 117.03 677.43 124.52 676.87 125.08"/><polygon class="cls-1" points="668.59 249.91 681.35 249.91 681.35 237.15 679.32 235.11 679.32 247.87 676.8 247.87 676.8 247.87 666.35 247.87 668.59 249.91"/><polygon class="cls-1" points="669.52 245.49 676.91 245.49 676.91 238.1 677.47 238.66 677.47 246.04 670.08 246.04 669.52 245.49"/></svg>