<?xml version="1.0" encoding="utf-8"?>
<!-- Generator: Adobe Illustrator 22.1.0, SVG Export Plug-In . SVG Version: 6.00 Build 0)  -->
<svg version="1.1" id="Layer_1" xmlns="http://www.w3.org/2000/svg" xmlns:xlink="http://www.w3.org/1999/xlink" x="0px" y="0px"
	 viewBox="0 0 768 1024" style="enable-background:new 0 0 768 1024;" xml:space="preserve">
<style type="text/css">
	.st0{fill:url(#SVGID_1_);}
	.st1{fill:url(#SVGID_2_);}
	.st2{fill:url(#SVGID_3_);}
	.st3{fill:none;stroke:#FFFFFF;stroke-miterlimit:10;}
	.st4{fill:#FFFFFF;}
</style>
<radialGradient id="SVGID_1_" cx="753.7783" cy="993.5049" r="24.9942" gradientTransform="matrix(0.4737 0 0 0.4738 164.819 166.0582)" gradientUnits="userSpaceOnUse">
	<stop  offset="0" style="stop-color:#FFFFFF"/>
	<stop  offset="8.862800e-02" style="stop-color:#73E6FF"/>
	<stop  offset="0.4256" style="stop-color:#73E6EC;stop-opacity:0.452"/>
	<stop  offset="0.7036" style="stop-color:#73E6E1;stop-opacity:0"/>
</radialGradient>
<path class="st0" d="M534.1,636.8c0,6.8-5.5,12.3-12.3,12.3c-6.8,0-12.3-5.5-12.3-12.3c0-6.8,5.5-12.3,12.3-12.3
	C528.7,624.5,534.1,630,534.1,636.8z"/>
<radialGradient id="SVGID_2_" cx="1405.2446" cy="1105.4453" r="12.2343" gradientTransform="matrix(0.3292 0.3292 -1.096 1.096 1324.52 -1053.9738)" gradientUnits="userSpaceOnUse">
	<stop  offset="0" style="stop-color:#FFFFFF"/>
	<stop  offset="8.862800e-02" style="stop-color:#73E6FF"/>
	<stop  offset="0.4256" style="stop-color:#73E6EC;stop-opacity:0.452"/>
	<stop  offset="0.7036" style="stop-color:#73E6E1;stop-opacity:0"/>
</radialGradient>
<path class="st1" d="M579.7,624.4c-7.7,7.7-15.7,12-18.1,9.7c-2.3-2.3,2-10.4,9.7-18.1c7.7-7.7,15.7-12,18.1-9.7
	C591.7,608.6,587.4,616.7,579.7,624.4z"/>
<radialGradient id="SVGID_3_" cx="809.8552" cy="619.2655" r="12.2333" gradientTransform="matrix(0.4656 0 0 1.55 185.7068 -382.3742)" gradientUnits="userSpaceOnUse">
	<stop  offset="0" style="stop-color:#FFFFFF"/>
	<stop  offset="8.862800e-02" style="stop-color:#73E6FF"/>
	<stop  offset="0.4256" style="stop-color:#73E6EC;stop-opacity:0.452"/>
	<stop  offset="0.7036" style="stop-color:#73E6E1;stop-opacity:0"/>
</radialGradient>
<path class="st2" d="M568.7,577.5c0,10.8-2.6,19.6-5.9,19.6c-3.3,0-5.9-8.8-5.9-19.6c0-10.8,2.6-19.6,5.9-19.6
	C566,557.9,568.7,566.6,568.7,577.5z"/>
<path class="st3" d="M533.1,518.3v30c16.4,0,29.7,13.3,29.7,29.8c0,16.4-13.3,29.8-29.8,29.8c-2,0-3.9-0.2-5.7-0.6l-5.8,29.4
	c4.3,0.8,7.1,1.1,11.5,1.1c33.2,0,60.1-26.8,60.1-59.8S566.3,518.3,533.1,518.3z"/>
<circle class="st4" cx="533.1" cy="518.3" r="1.5"/>
<circle class="st4" cx="533.1" cy="548.2" r="1.5"/>
<circle class="st4" cx="527.4" cy="607.3" r="1.5"/>
<circle class="st4" cx="521.7" cy="636.8" r="1.5"/>
</svg>
