<?xml version="1.0" encoding="utf-8"?>
<!-- Generator: Adobe Illustrator 22.1.0, SVG Export Plug-In . SVG Version: 6.00 Build 0)  -->
<svg version="1.1" id="Layer_1" xmlns="http://www.w3.org/2000/svg" xmlns:xlink="http://www.w3.org/1999/xlink" x="0px" y="0px"
	 viewBox="0 0 768 1024" style="enable-background:new 0 0 768 1024;" xml:space="preserve">
<style type="text/css">
	.st0{fill:none;stroke:#69FFFF;stroke-miterlimit:10;}
	.st1{font-family:'MFinanceHKS-Bold-B5pc-H';}
	.st2{font-size:33px;}
	.st3{letter-spacing:7.8;}
	.st4{fill:none;stroke:url(#SVGID_1_);}
	.st5{fill:none;stroke:url(#SVGID_2_);}
	.st6{fill:none;stroke:url(#SVGID_3_);}
	.st7{fill:none;stroke:url(#SVGID_4_);}
	.st8{fill:none;stroke:url(#SVGID_5_);}
	.st9{fill:none;stroke:url(#SVGID_6_);}
	.st10{fill:none;stroke:url(#SVGID_7_);}
	.st11{fill:none;stroke:url(#SVGID_8_);}
</style>
<g>
	<text transform="matrix(0.9 0 0 1 224.1894 66.1063)" class="st0 st1 st2 st3">經營業績  穩中有進</text>
	<g>
		<linearGradient id="SVGID_1_" gradientUnits="userSpaceOnUse" x1="384.667" y1="68.29" x2="384.667" y2="38.1797">
			<stop  offset="0" style="stop-color:#C8FFFF"/>
			<stop  offset="5.214036e-03" style="stop-color:#C9FFFF"/>
			<stop  offset="0.1111" style="stop-color:#E1FFFF"/>
			<stop  offset="0.2234" style="stop-color:#F2FFFF"/>
			<stop  offset="0.3466" style="stop-color:#FCFFFF"/>
			<stop  offset="0.5" style="stop-color:#FFFFFF"/>
			<stop  offset="0.6534" style="stop-color:#FCFFFF"/>
			<stop  offset="0.7766" style="stop-color:#F2FFFF"/>
			<stop  offset="0.8889" style="stop-color:#E1FFFF"/>
			<stop  offset="0.9948" style="stop-color:#C9FFFF"/>
			<stop  offset="1" style="stop-color:#C8FFFF"/>
		</linearGradient>
		<path class="st4" d="M235.9,64.9l-9.4,2.8c-0.1,0-0.3-0.2-0.3-0.3v-2c0-0.2,0.1-0.3,0.3-0.3l9.4-2.8c0.2-0.1,0.4,0.2,0.4,0.5v1.6
			C236.2,64.7,236,64.9,235.9,64.9z M231.2,47h4.2c0.2,0,0.5,0.3,0.5,0.6v1.6c0,0.3-0.1,0.8-0.3,1.1l-4.8,7.5h5
			c0.3,0,0.4,0.2,0.4,0.5v1.7c0,0.3-0.2,0.5-0.4,0.5h-9c-0.3,0-0.6-0.3-0.6-0.7v-1.1c0-0.3,0.1-0.8,0.3-1.1l5-7.8h-4.8
			c-0.4,0-0.5-0.3-0.5-0.6v-1.3c0-0.2,0-0.5,0.1-0.6l5.9-8.3c0.1-0.1,0.2-0.2,0.4-0.2h3.7c0.2,0,0.4,0.5,0.2,0.6L231.2,47z
			 M252.5,53.4h-3.9c-0.2,0-0.5-0.2-0.6-0.3l-3.7-4.3l-3.8,4.3c-0.1,0.1-0.5,0.3-0.6,0.3h-4.1c-0.1,0-0.1-0.3-0.1-0.4l9.8-11.2h-8
			c-0.2,0-0.4-0.2-0.4-0.4v-1.9c0-0.2,0.1-0.3,0.3-0.3h12.3c0.3,0,0.6,0.3,0.6,0.6v1.7c0,0.3-0.1,0.7-0.3,0.9l-3.3,3.8l6,7
			C252.8,53.2,252.7,53.4,252.5,53.4z M251.8,67.7h-15.1c-0.2,0-0.4-0.2-0.4-0.3v-2c0-0.2,0.1-0.3,0.3-0.3h5.7v-6.7h-5.1
			c-0.2,0-0.4-0.2-0.4-0.3v-2c0-0.2,0.1-0.3,0.3-0.3h13.6c0.2,0,0.4,0.2,0.4,0.4v1.8c0,0.3-0.2,0.5-0.4,0.5h-4.7V65h5.5
			c0.2,0,0.4,0.2,0.4,0.4v1.8C252.2,67.5,252,67.7,251.8,67.7z"/>
		<linearGradient id="SVGID_2_" gradientUnits="userSpaceOnUse" x1="384.667" y1="68.29" x2="384.667" y2="38.1797">
			<stop  offset="0" style="stop-color:#C8FFFF"/>
			<stop  offset="5.214036e-03" style="stop-color:#C9FFFF"/>
			<stop  offset="0.1111" style="stop-color:#E1FFFF"/>
			<stop  offset="0.2234" style="stop-color:#F2FFFF"/>
			<stop  offset="0.3466" style="stop-color:#FCFFFF"/>
			<stop  offset="0.5" style="stop-color:#FFFFFF"/>
			<stop  offset="0.6534" style="stop-color:#FCFFFF"/>
			<stop  offset="0.7766" style="stop-color:#F2FFFF"/>
			<stop  offset="0.8889" style="stop-color:#E1FFFF"/>
			<stop  offset="0.9948" style="stop-color:#C9FFFF"/>
			<stop  offset="1" style="stop-color:#C8FFFF"/>
		</linearGradient>
		<path class="st5" d="M289,43.4h-5.5v1.7c0,0.3-0.1,0.4-0.4,0.4h-3c-0.2,0-0.4-0.2-0.4-0.4v-1.7h-6.8v1.7c0,0.3-0.2,0.4-0.4,0.4h-3
			c-0.2,0-0.4-0.2-0.4-0.4v-1.7h-5.8c-0.2,0-0.4-0.2-0.4-0.3v-1.7c0-0.2,0.2-0.3,0.4-0.3h5.8v-1.9c0-0.2,0.1-0.4,0.3-0.4h3.2
			c0.1,0,0.3,0.2,0.3,0.4v1.9h6.8v-1.9c0-0.2,0.1-0.4,0.3-0.4h3.2c0.1,0,0.3,0.2,0.3,0.4v1.9h5.5c0.2,0,0.4,0.2,0.4,0.4V43
			C289.5,43.2,289.2,43.4,289,43.4z M288.8,51.1h-2.9c0.3,0.4,0.4,0.8,0.4,1.1v3.3c0,0.7-0.2,1.3-0.5,1.6c-0.4,0.4-1,0.7-1.7,0.7
			h-15.8c-0.7,0-1.3-0.3-1.7-0.8c-0.3-0.4-0.5-0.9-0.5-1.6v-3.3c0-0.3,0.2-0.7,0.5-1h-2.8c-0.2,0-0.4-0.3-0.4-0.6v-2.2
			c0-0.5,0.2-0.9,0.6-1.3c0.4-0.4,1-0.7,1.5-0.7H287c0.5,0,1.1,0.2,1.5,0.5c0.4,0.4,0.7,0.9,0.7,1.6v2.1
			C289.2,50.9,289,51.1,288.8,51.1z M287.6,67.1c-0.4,0.4-1,0.7-1.7,0.7h-19.4c-0.7,0-1.3-0.3-1.7-0.8c-0.3-0.4-0.5-0.9-0.5-1.6
			v-3.7c0-0.6,0.2-1.2,0.6-1.7c0.4-0.5,1-0.8,1.6-0.8h19.4c0.5,0,1.1,0.2,1.5,0.6s0.7,0.9,0.7,1.5v4.1
			C288.1,66.2,287.9,66.8,287.6,67.1z M267.3,48.7v1.9c0.2-0.1,0.4-0.1,0.5-0.1h16.8c0.2,0,0.5,0.1,0.7,0.2v-2H267.3z M284.2,61.7
			h-16v3.8h16V61.7z M282.4,52.8H270v2.6h12.4V52.8z"/>
		<linearGradient id="SVGID_3_" gradientUnits="userSpaceOnUse" x1="384.667" y1="68.29" x2="384.667" y2="38.1797">
			<stop  offset="0" style="stop-color:#C8FFFF"/>
			<stop  offset="5.214036e-03" style="stop-color:#C9FFFF"/>
			<stop  offset="0.1111" style="stop-color:#E1FFFF"/>
			<stop  offset="0.2234" style="stop-color:#F2FFFF"/>
			<stop  offset="0.3466" style="stop-color:#FCFFFF"/>
			<stop  offset="0.5" style="stop-color:#FFFFFF"/>
			<stop  offset="0.6534" style="stop-color:#FCFFFF"/>
			<stop  offset="0.7766" style="stop-color:#F2FFFF"/>
			<stop  offset="0.8889" style="stop-color:#E1FFFF"/>
			<stop  offset="0.9948" style="stop-color:#C9FFFF"/>
			<stop  offset="1" style="stop-color:#C8FFFF"/>
		</linearGradient>
		<path class="st6" d="M326.1,67.7h-25.6c-0.2,0-0.3-0.2-0.3-0.3v-2c0-0.2,0.1-0.3,0.3-0.3h7.5V39.1c0-0.2,0.1-0.4,0.3-0.4h3.1
			c0.1,0,0.3,0.2,0.3,0.4V65h3.4V39.1c0-0.2,0.1-0.4,0.3-0.4h3.1c0.1,0,0.3,0.2,0.3,0.4V65h7.2c0.2,0,0.4,0.2,0.4,0.5v1.7
			C326.4,67.5,326.2,67.7,326.1,67.7z M305.7,61h-3.1c-0.2,0-0.3-0.1-0.4-0.4l-1.9-18.1c0-0.3,0.1-0.5,0.4-0.5h2.9
			c0.2,0,0.5,0.2,0.5,0.5l1.9,18.1C306.1,60.8,305.9,61,305.7,61z M324.5,60.6c0,0.3-0.1,0.4-0.4,0.4H321c-0.2,0-0.4-0.2-0.3-0.4
			l1.8-18.1c0-0.3,0.3-0.5,0.5-0.5h2.9c0.3,0,0.4,0.2,0.4,0.5L324.5,60.6z"/>
		<linearGradient id="SVGID_4_" gradientUnits="userSpaceOnUse" x1="384.667" y1="68.29" x2="384.667" y2="38.1797">
			<stop  offset="0" style="stop-color:#C8FFFF"/>
			<stop  offset="5.214036e-03" style="stop-color:#C9FFFF"/>
			<stop  offset="0.1111" style="stop-color:#E1FFFF"/>
			<stop  offset="0.2234" style="stop-color:#F2FFFF"/>
			<stop  offset="0.3466" style="stop-color:#FCFFFF"/>
			<stop  offset="0.5" style="stop-color:#FFFFFF"/>
			<stop  offset="0.6534" style="stop-color:#FCFFFF"/>
			<stop  offset="0.7766" style="stop-color:#F2FFFF"/>
			<stop  offset="0.8889" style="stop-color:#E1FFFF"/>
			<stop  offset="0.9948" style="stop-color:#C9FFFF"/>
			<stop  offset="1" style="stop-color:#C8FFFF"/>
		</linearGradient>
		<path class="st7" d="M346.2,65.5l-8.5,2.1c-0.1,0-0.4-0.2-0.4-0.3v-1.9c0-0.2,0.1-0.3,0.3-0.3l8.5-2.1c0.2-0.1,0.4,0.2,0.4,0.4
			v1.7C346.6,65.2,346.4,65.4,346.2,65.5z M342.2,47.1h3.7c0.2,0,0.4,0.2,0.4,0.4v2c0,0.3-0.2,0.7-0.3,0.9l-3.9,7.2h3.8
			c0.2,0,0.4,0.2,0.4,0.4v1.7c0,0.3-0.2,0.5-0.4,0.5h-8c-0.2,0-0.4-0.2-0.4-0.3v-1.3c0-0.3,0.1-0.5,0.2-0.8l4.3-8.1h-4.2
			c-0.2,0-0.4-0.2-0.4-0.3v-1.5c0-0.2,0.1-0.7,0.2-0.8l5-8c0.1-0.2,0.4-0.3,0.6-0.3h3.4c0.2,0,0.4,0.4,0.2,0.6L342.2,47.1z
			 M363.8,67.7h-4.1c-0.3,0-0.5-0.1-0.7-0.3l-3.7-3.5l-3.9,3.5c-0.1,0.1-0.4,0.3-0.7,0.3h-4.1c-0.2,0-0.3-0.3-0.1-0.4l7-6.2v-4
			c0-0.2,0.1-0.4,0.3-0.4h3.2c0.1,0,0.3,0.2,0.3,0.4v5.1h0.8c0.2,0,0.5,0.1,0.6,0.2l5.2,4.9C364,67.4,364,67.7,363.8,67.7z
			 M363.3,51.7h-16.2c-0.2,0-0.4-0.2-0.4-0.3v-1.9c0-0.2,0.1-0.3,0.3-0.3h6.1v-1.6h-4.9c-0.2,0-0.4-0.2-0.4-0.3v-1.9
			c0-0.2,0.1-0.3,0.3-0.3h4.9v-1.6h-5.7c-0.2,0-0.4-0.2-0.4-0.3v-1.9c0-0.2,0.2-0.3,0.4-0.3h5.7v-1.7c0-0.2,0.1-0.4,0.3-0.4h3.2
			c0.1,0,0.3,0.2,0.3,0.4v1.7h5.9c0.2,0,0.4,0.2,0.4,0.4v1.7c0,0.3-0.2,0.5-0.4,0.5H357v1.6h5.2c0.2,0,0.4,0.2,0.4,0.4V47
			c0,0.3-0.2,0.5-0.4,0.5H357v1.6h6.3c0.2,0,0.4,0.2,0.4,0.4v1.7C363.7,51.5,363.5,51.7,363.3,51.7z M362.7,62.4h-3.1
			c-0.2,0-0.4-0.3-0.4-0.5v-6.4h-7.6V62c0,0.2-0.1,0.5-0.3,0.5h-3.1c-0.2,0-0.4-0.3-0.4-0.5v-6.6c0-0.7,0.2-1.3,0.6-1.7
			c0.4-0.4,1-0.6,1.7-0.6h11c0.6,0,1.1,0.3,1.5,0.7c0.3,0.4,0.5,1,0.5,1.6V62C363,62.2,362.9,62.4,362.7,62.4z"/>
		<linearGradient id="SVGID_5_" gradientUnits="userSpaceOnUse" x1="384.667" y1="68.29" x2="384.667" y2="38.1797">
			<stop  offset="0" style="stop-color:#C8FFFF"/>
			<stop  offset="5.214036e-03" style="stop-color:#C9FFFF"/>
			<stop  offset="0.1111" style="stop-color:#E1FFFF"/>
			<stop  offset="0.2234" style="stop-color:#F2FFFF"/>
			<stop  offset="0.3466" style="stop-color:#FCFFFF"/>
			<stop  offset="0.5" style="stop-color:#FFFFFF"/>
			<stop  offset="0.6534" style="stop-color:#FCFFFF"/>
			<stop  offset="0.7766" style="stop-color:#F2FFFF"/>
			<stop  offset="0.8889" style="stop-color:#E1FFFF"/>
			<stop  offset="0.9948" style="stop-color:#C9FFFF"/>
			<stop  offset="1" style="stop-color:#C8FFFF"/>
		</linearGradient>
		<path class="st8" d="M407.1,65.2c0,0.2-0.2,0.2-0.3,0.2h-1.5c-0.2,0-0.3-0.2-0.3-0.4l0.5-13.3c0-0.1,0.3-0.4,0.4-0.4h1.3
			c0.2,0,0.4,0.3,0.4,0.5L407.1,65.2z M415.3,41.2c-0.2,0.5-0.4,0.9-0.8,1.1c-0.4,0.3-1,0.5-1.5,0.5h-0.8V47h3
			c0.2,0,0.3,0.2,0.3,0.4v1.8c0,0.2-0.2,0.4-0.4,0.4h-2.9v17.6c0,0.2-0.1,0.5-0.3,0.5h-3.1c-0.2,0-0.4-0.3-0.4-0.5V49.6h-3
			c-0.2,0-0.4-0.2-0.4-0.3v-2c0-0.2,0.2-0.3,0.4-0.3h3v-4.1h-2.6c-0.2,0-0.4-0.2-0.4-0.3v-2c0-0.2,0.2-0.3,0.4-0.3h5.5l0.4-1.1
			c0.1-0.2,0.3-0.4,0.5-0.4h3.7c0.3,0,0.4,0.2,0.3,0.5L415.3,41.2z M415.2,62.8h-1.6c-0.1,0-0.3-0.1-0.3-0.2l-0.6-10.7
			c0-0.2,0.2-0.5,0.4-0.5h1.3c0.2,0,0.4,0.2,0.4,0.4l0.6,10.7C415.5,62.6,415.4,62.8,415.2,62.8z M417.8,66.7
			c-0.1,0.3-0.1,0.5-0.4,0.5h-2c-0.2,0-0.3-0.2-0.3-0.4l1.4-7.5c0-0.2,0.2-0.3,0.4-0.3h2c0.1,0,0.3,0.3,0.3,0.4L417.8,66.7z
			 M429.8,56.9c-0.6,0.4-1.5,0.5-2.3,0.5h-11.2c-0.2,0-0.4-0.2-0.4-0.3v-1.9c0-0.2,0.1-0.3,0.3-0.3H427v-2.3h-10
			c-0.2,0-0.4-0.2-0.4-0.3v-1.9c0-0.2,0.1-0.3,0.3-0.3H427v-1.9h-10.2c-0.4,0-0.4-0.1-0.4-0.5v-1h-1c-0.2,0-0.3-0.2-0.2-0.4l3.2-7.1
			c0.1-0.3,0.3-0.4,0.6-0.4h3.4c0.2,0,0.2,0.3,0.1,0.5l-0.6,1.3h5.9c0.6,0,1,0.3,1,1v0.9c0,0.4-0.1,0.7-0.3,1.1l-0.9,2.1h1.2
			c0.6,0,1,0.2,1.4,0.6c0.3,0.4,0.5,0.9,0.5,1.5v7C430.8,55.9,430.5,56.5,429.8,56.9z M420.8,43l-1.2,2.5h3.9l1-2.5H420.8z
			 M427.3,67.3c-0.1,0.3-0.3,0.4-0.6,0.4h-4.9c-0.8,0-1.3-0.3-1.6-0.8c-0.3-0.4-0.4-1-0.4-1.7V59c0-0.3,0.2-0.5,0.4-0.5h2.7
			c0.2,0,0.5,0.3,0.5,0.5v6h4c0.4,0,0.4,0.3,0.4,0.6L427.3,67.3z M427,63.7h-1.9c-0.3,0-0.4-0.1-0.5-0.4l-0.7-4.9
			c0-0.2,0.1-0.4,0.3-0.4h2c0.3,0,0.4,0.1,0.5,0.4l0.7,4.8C427.3,63.5,427.2,63.7,427,63.7z M431.5,67.3h-2.2
			c-0.2,0-0.4-0.1-0.4-0.3l-1.2-7.6c-0.1-0.3,0.1-0.5,0.3-0.5h2.1c0.3,0,0.5,0.1,0.5,0.4l1.1,7.5C431.8,67.1,431.7,67.3,431.5,67.3z
			"/>
		<linearGradient id="SVGID_6_" gradientUnits="userSpaceOnUse" x1="384.667" y1="68.29" x2="384.667" y2="38.1797">
			<stop  offset="0" style="stop-color:#C8FFFF"/>
			<stop  offset="5.214036e-03" style="stop-color:#C9FFFF"/>
			<stop  offset="0.1111" style="stop-color:#E1FFFF"/>
			<stop  offset="0.2234" style="stop-color:#F2FFFF"/>
			<stop  offset="0.3466" style="stop-color:#FCFFFF"/>
			<stop  offset="0.5" style="stop-color:#FFFFFF"/>
			<stop  offset="0.6534" style="stop-color:#FCFFFF"/>
			<stop  offset="0.7766" style="stop-color:#F2FFFF"/>
			<stop  offset="0.8889" style="stop-color:#E1FFFF"/>
			<stop  offset="0.9948" style="stop-color:#C9FFFF"/>
			<stop  offset="1" style="stop-color:#C8FFFF"/>
		</linearGradient>
		<path class="st9" d="M466.8,59.4c-0.4,0.3-0.9,0.5-1.3,0.5h-8.1v7.2c0,0.2-0.2,0.5-0.4,0.5h-3.1c-0.2,0-0.4-0.3-0.4-0.5V60h-8.3
			c-0.7,0-1.1-0.2-1.4-0.5s-0.4-0.8-0.4-1.4v-12c0-0.5,0.2-0.9,0.6-1.3c0.4-0.4,1-0.6,1.5-0.6h8.2v-5.1c0-0.2,0.1-0.4,0.3-0.4h3.2
			c0.1,0,0.3,0.2,0.3,0.4v5.1h8.1c0.6,0,1.1,0.2,1.5,0.7c0.4,0.4,0.6,1,0.6,1.6V58C467.5,58.6,467.2,59.1,466.8,59.4z M453.5,46.9
			h-6.4v10.4h6.4V46.9z M463.7,46.9h-6.4v10.4h6.4V46.9z"/>
		<linearGradient id="SVGID_7_" gradientUnits="userSpaceOnUse" x1="384.667" y1="68.29" x2="384.667" y2="38.1797">
			<stop  offset="0" style="stop-color:#C8FFFF"/>
			<stop  offset="5.214036e-03" style="stop-color:#C9FFFF"/>
			<stop  offset="0.1111" style="stop-color:#E1FFFF"/>
			<stop  offset="0.2234" style="stop-color:#F2FFFF"/>
			<stop  offset="0.3466" style="stop-color:#FCFFFF"/>
			<stop  offset="0.5" style="stop-color:#FFFFFF"/>
			<stop  offset="0.6534" style="stop-color:#FCFFFF"/>
			<stop  offset="0.7766" style="stop-color:#F2FFFF"/>
			<stop  offset="0.8889" style="stop-color:#E1FFFF"/>
			<stop  offset="0.9948" style="stop-color:#C9FFFF"/>
			<stop  offset="1" style="stop-color:#C8FFFF"/>
		</linearGradient>
		<path class="st10" d="M505.2,44.5h-15.8l-2.2,3.4h14.3c0.9,0,1.5,0.4,2,0.9c0.4,0.5,0.6,1.2,0.6,1.9v14.9c0,0.5-0.2,1.1-0.5,1.5
			c-0.4,0.4-0.8,0.7-1.3,0.7h-7.7c-0.2,0-0.3-0.1-0.4-0.3l-0.7-1.9c-0.1-0.2,0-0.4,0.2-0.4h6.5V62h-14.7v5.2c0,0.3-0.2,0.5-0.4,0.5
			H482c-0.2,0-0.4-0.3-0.4-0.5V54.4h-2.5c-0.2,0-0.3-0.2-0.2-0.4l5.9-9.5h-5.3c-0.2,0-0.4-0.2-0.4-0.3v-1.9c0-0.2,0.1-0.3,0.3-0.3
			h6.9l1.8-2.8c0.1-0.2,0.3-0.4,0.6-0.4h3.7c0.2,0,0.3,0.3,0.2,0.5l-1.7,2.7h14.2c0.2,0,0.4,0.2,0.4,0.4V44
			C505.6,44.3,505.4,44.5,505.2,44.5z M500.2,50.5h-14.6l-0.1,0.2v2.8h14.7V50.5z M500.2,56.1h-14.7v3.4h14.7V56.1z"/>
		<linearGradient id="SVGID_8_" gradientUnits="userSpaceOnUse" x1="384.667" y1="68.29" x2="384.667" y2="38.1797">
			<stop  offset="0" style="stop-color:#C8FFFF"/>
			<stop  offset="5.214036e-03" style="stop-color:#C9FFFF"/>
			<stop  offset="0.1111" style="stop-color:#E1FFFF"/>
			<stop  offset="0.2234" style="stop-color:#F2FFFF"/>
			<stop  offset="0.3466" style="stop-color:#FCFFFF"/>
			<stop  offset="0.5" style="stop-color:#FFFFFF"/>
			<stop  offset="0.6534" style="stop-color:#FCFFFF"/>
			<stop  offset="0.7766" style="stop-color:#F2FFFF"/>
			<stop  offset="0.8889" style="stop-color:#E1FFFF"/>
			<stop  offset="0.9948" style="stop-color:#C9FFFF"/>
			<stop  offset="1" style="stop-color:#C8FFFF"/>
		</linearGradient>
		<path class="st11" d="M523.7,46h-3.9c-0.2,0-0.4-0.2-0.5-0.3l-3.1-6.6c0-0.1,0.1-0.4,0.2-0.4h3.8c0.1,0,0.4,0,0.4,0.2l3.1,6.7
			C523.9,45.8,523.8,46,523.7,46z M542.2,67.4c-0.1,0.1-0.3,0.3-0.4,0.3h-15.6c-0.3,0-0.7-0.2-1-0.3l-3.1-2.2l-1.1,2.3
			c-0.1,0.2-0.3,0.3-0.5,0.3h-3.6c-0.2,0-0.3-0.2-0.2-0.4l2.6-5.3V50.1h-2.3c-0.2,0-0.4-0.2-0.4-0.4v-1.6c0-0.3,0.1-0.6,0.5-0.6h4.2
			c0.6,0,1,0.3,1.4,0.7c0.3,0.4,0.5,0.9,0.5,1.3v12.9l3.8,2.6h16c0.2,0,0.4,0.3,0.3,0.5L542.2,67.4z M542.5,55.4h-3.1v7.8
			c0,0.2-0.1,0.5-0.3,0.5H536c-0.2,0-0.3-0.3-0.3-0.5v-7.8h-3.9v1.5c0,0.7-0.2,2.2-0.6,2.8l-2.1,3.5c-0.1,0.2-0.5,0.4-0.7,0.4h-3.4
			c-0.2,0-0.4-0.3-0.2-0.5l3.2-5.3v-2.3h-3.3c-0.2,0-0.3-0.2-0.3-0.3v-1.9c0-0.2,0.1-0.3,0.3-0.3h3.3v-6.9h-2.8
			c-0.2,0-0.3-0.2-0.3-0.3v-1.9c0-0.2,0.1-0.3,0.3-0.3h2.9v-4.2c0-0.2,0.1-0.4,0.3-0.4h3.1c0.1,0,0.3,0.2,0.3,0.4v4.2h3.9v-4.2
			c0-0.2,0.1-0.4,0.3-0.4h3.1c0.1,0,0.3,0.2,0.3,0.4v4.2h2.5c0.2,0,0.4,0.2,0.4,0.5v1.6c0,0.3-0.2,0.5-0.4,0.5h-2.5v6.9h3.1
			c0.2,0,0.4,0.2,0.4,0.5v1.6C542.9,55.2,542.7,55.4,542.5,55.4z M535.7,45.9h-3.9v6.9h3.9V45.9z"/>
	</g>
</g>
</svg>
